{"title":"Spiral (Engrenages) S05E12 x264 RB58.mp4","uid":11702404,"size":579092798,"categoryP":"video","categoryS":"tv_shows","magnet":"?xt=urn:btih:2bf26885138d8db2b79eff8090d0e7bee2ba77ca&amp;dn=Spiral+%28Engrenages%29+S05E12+x264+RB58.mp4&amp;tr=udp%3A%2F%2Ftracker.openbittorrent.com%3A80&amp;tr=udp%3A%2F%2Fopen.demonii.com%3A1337&amp;tr=udp%3A%2F%2Ftracker.coppersurfer.tk%3A6969&amp;tr=udp%3A%2F%2Fexodus.desync.com%3A6969","seeders":1,"leechers":0,"uploader":"RedBaron58","files":1,"time":1423970654,"description":"Spiral S05E12 - Crime Drama x264 mp4 \nIn French with hard coded English BBC subs\nAKA Engrenages\n\n &lt;a href=&quot;\nhttp://www.imdb.com/title/tt0477507/&quot; rel=&quot;nofollow&quot; target=&quot;_NEW&quot;&gt;\nhttp://www.imdb.com/title/tt0477507/&lt;/a&gt;\n\nTrailer: In French: main video has English subs\n\n\nThank you for your kind comments and thumbs ups on my other torrents, your feedback is welcome.\n\n\nAbout the Episode:\nLaure's team pulls out all the stops to find the little girl who has been kidnapped by Karen's gang, \nand a ransom is demanded in exchange for her freedom. \nRoban cannot stand to see Tarek Ziani elude his charges and tries to bring him down using the Crime Unit's \ninvestigation into a luxury vehicle racket, but Gilou's dealings with a prominent police informant \nthreaten the outcome of the operation\n  \nStarring Caroline Proust\n\n\nI hope you enjoy.\n\nTechnical:\n\nGeneral\nComplete name                            : H:Spiral (Engrenages) S05E12 x264 RB58.mp4\nFormat                                   : MPEG-4\nFormat profile                           : Base Media\nCodec ID                                 : isom\nFile size                                : 552 MiB\nDuration                                 : 50mn 41s\nOverall bit rate                         : 1 523 Kbps\nWriting application                      : Lavf54.63.104\n\nVideo\nID                                       : 1\nFormat                                   : AVC\nFormat/Info                              : Advanced Video Codec\nFormat profile                           : &lt;a class=&quot;__cf_email__&quot; href=&quot;/cdn-cgi/l/email-protection&quot; data-cfemail=&quot;4800212f2008047b6678&quot;&gt;[email&amp;#160;protected]&lt;/a&gt;&lt;script cf-hash='f9e31' type=&quot;text/javascript&quot;&gt;\n/* &lt;![CDATA[ */!function(){try{var t=&quot;currentScript&quot;in document?document.currentScript:function(){for(var t=document.getElementsByTagName(&quot;script&quot;),e=t.length;e--;)if(t[e].getAttribute(&quot;cf-hash&quot;))return t[e]}();if(t&amp;&amp;t.previousSibling){var e,r,n,i,c=t.previousSibling,a=c.getAttribute(&quot;data-cfemail&quot;);if(a){for(e=&quot;&quot;,r=parseInt(a.substr(0,2),16),n=2;a.length-n;n+=2)i=parseInt(a.substr(n,2),16)^r,e+=String.fromCharCode(i);e=document.createTextNode(e),c.parentNode.replaceChild(e,c)}}}catch(u){}}();/* ]]&gt; */&lt;/script&gt;\nFormat settings, CABAC                   : Yes\nFormat settings, ReFrames                : 4 frames\nCodec ID                                 : avc1\nCodec ID/Info                            : Advanced Video Coding\nDuration                                 : 50mn 41s\nBit rate                                 : 1 400 Kbps\nWidth                                    : 832 pixels\nHeight                                   : 468 pixels\nDisplay aspect ratio                     : 16:9\nFrame rate mode                          : Constant\nFrame rate                               : 25.000 fps\nColor space                              : YUV\nChroma subsampling                       : 4:2:0\nBit depth                                : 8 bits\nScan type                                : Progressive\nBits/(Pixel*Frame)                       : 0.144\nStream size                              : 508 MiB (92%)\nWriting library                          : x264 core 123 r2189 35cf912\nEncoding settings                        : cabac=1 / ref=3 / deblock=1:0:0\n\nAudio\nID                                       : 2\nFormat                                   : AAC\nFormat/Info                              : Advanced Audio Codec\nFormat profile                           : LC\nCodec ID                                 : 40\nDuration                                 : 50mn 41s\nBit rate mode                            : Constant\nBit rate                                 : 114 Kbps\nChannel(s)                               : 2 channels\nChannel positions                        : Front: L R\nSampling rate                            : 48.0 KHz\nCompression mode                         : Lossy\nStream size                              : 41.4 MiB (8%)","torrent":{"xt":"urn:btih:2bf26885138d8db2b79eff8090d0e7bee2ba77ca","amp;dn":"Spiral+%28Engrenages%29+S05E12+x264+RB58.mp4","amp;tr":["udp%3A%2F%2Ftracker.openbittorrent.com%3A80","udp%3A%2F%2Fopen.demonii.com%3A1337","udp%3A%2F%2Ftracker.coppersurfer.tk%3A6969","udp%3A%2F%2Fexodus.desync.com%3A6969"],"infoHash":"2bf26885138d8db2b79eff8090d0e7bee2ba77ca","infoHashBuffer":{"type":"Buffer","data":[43,242,104,133,19,141,141,178,183,158,255,128,144,208,231,190,226,186,119,202]},"announce":[],"urlList":[]}}